<svg width="13" height="18" viewBox="0 0 13 18" fill="none" xmlns="http://www.w3.org/2000/svg">
<path d="M1 3.9148C1 2.89462 1 2.38453 1.19983 1.99468C1.3756 1.65191 1.65605 1.37323 2.001 1.19857C2.39333 1 2.90667 1 3.93333 1H9.06667C10.0933 1 10.6067 1 10.999 1.19857C11.3439 1.37323 11.6244 1.65191 11.8002 1.99468C12 2.38453 12 2.89462 12 3.9148V16.034C12 16.4767 12 16.698 11.9074 16.8192C11.8674 16.8719 11.8164 16.9153 11.7578 16.9464C11.6992 16.9776 11.6346 16.9957 11.5682 16.9995C11.4152 17.0086 11.23 16.8857 10.8597 16.6406L6.5 13.7523L2.14033 16.6397C1.77 16.8857 1.58483 17.0086 1.43083 16.9995C1.36468 16.9956 1.30019 16.9774 1.24179 16.9462C1.1834 16.9151 1.13249 16.8718 1.09258 16.8192C1 16.698 1 16.4767 1 16.034V3.9148Z" stroke="#717171" stroke-width="1.5" stroke-linecap="round" stroke-linejoin="round"/>
</svg>
