<svg width="14" height="16" viewBox="0 0 14 16" fill="none" xmlns="http://www.w3.org/2000/svg">
<path fill-rule="evenodd" clip-rule="evenodd" d="M11.2414 2.31292e-07C10.838 -0.000130649 10.4395 0.0853522 10.0739 0.250419C9.70837 0.415485 9.38473 0.656114 9.12583 0.95533C8.86693 1.25455 8.67906 1.60506 8.5755 1.98214C8.47193 2.35923 8.45518 2.7537 8.52643 3.13773L4.51333 5.85534L4.45564 5.89883C4.0485 5.59103 3.56012 5.40007 3.0462 5.34773C2.53227 5.29539 2.01348 5.38378 1.54898 5.6028C1.08448 5.82183 0.692968 6.16268 0.419093 6.5865C0.145217 7.01032 0 7.50003 0 7.99981C0 8.49958 0.145217 8.9893 0.419093 9.41311C0.692968 9.83693 1.08448 10.1778 1.54898 10.3968C2.01348 10.6158 2.53227 10.7042 3.0462 10.6519C3.56012 10.5995 4.0485 10.4086 4.45564 10.1008L4.51333 10.1451L8.52643 12.8627C8.49815 13.0159 8.48401 13.1729 8.48401 13.3337C8.48412 13.9659 8.71647 14.5775 9.1396 15.0594C9.56274 15.5413 10.1491 15.8621 10.7942 15.9647C11.4392 16.0672 12.101 15.9448 12.6613 15.6193C13.2217 15.2937 13.6443 14.7862 13.8536 14.1873C14.063 13.5884 14.0455 12.937 13.8043 12.3494C13.5632 11.7618 13.114 11.2762 12.5369 10.9792C11.9599 10.6821 11.2924 10.593 10.6538 10.7278C10.0151 10.8625 9.44666 11.2123 9.04992 11.7148L5.24977 9.14076C5.41946 8.7945 5.51448 8.40802 5.51448 7.9994C5.51448 7.59077 5.41946 7.20348 5.24977 6.85803L9.05077 4.28483C9.33539 4.64543 9.71043 4.92985 10.1404 5.11118C10.5704 5.29251 11.0411 5.36476 11.508 5.3211C11.9749 5.27743 12.4225 5.1193 12.8086 4.86165C13.1947 4.60401 13.5064 4.25537 13.7144 3.84871C13.9223 3.44205 14.0195 2.99082 13.9968 2.5377C13.9741 2.08458 13.8322 1.64455 13.5846 1.25923C13.3371 0.873915 12.9919 0.55605 12.5819 0.335702C12.1719 0.115355 11.7105 -0.000188686 11.2414 2.31292e-07ZM9.75667 2.66674C9.75667 2.28591 9.9131 1.92067 10.1915 1.65138C10.47 1.38209 10.8476 1.2308 11.2414 1.2308C11.6352 1.2308 12.0129 1.38209 12.2913 1.65138C12.5698 1.92067 12.7262 2.28591 12.7262 2.66674C12.7262 3.04757 12.5698 3.41281 12.2913 3.6821C12.0129 3.95139 11.6352 4.10268 11.2414 4.10268C10.8476 4.10268 10.47 3.95139 10.1915 3.6821C9.9131 3.41281 9.75667 3.04757 9.75667 2.66674ZM2.75707 6.56428C2.36328 6.56428 1.98563 6.71557 1.70718 6.98486C1.42873 7.25415 1.2723 7.61938 1.2723 8.00022C1.2723 8.38105 1.42873 8.74629 1.70718 9.01558C1.98563 9.28487 2.36328 9.43615 2.75707 9.43615C3.15085 9.43615 3.52851 9.28487 3.80695 9.01558C4.0854 8.74629 4.24183 8.38105 4.24183 8.00022C4.24183 7.61938 4.0854 7.25415 3.80695 6.98486C3.52851 6.71557 3.15085 6.56428 2.75707 6.56428ZM11.2414 11.8978C10.8476 11.8978 10.47 12.049 10.1915 12.3183C9.9131 12.5876 9.75667 12.9529 9.75667 13.3337C9.75667 13.7145 9.9131 14.0798 10.1915 14.3491C10.47 14.6183 10.8476 14.7696 11.2414 14.7696C11.6352 14.7696 12.0129 14.6183 12.2913 14.3491C12.5698 14.0798 12.7262 13.7145 12.7262 13.3337C12.7262 12.9529 12.5698 12.5876 12.2913 12.3183C12.0129 12.049 11.6352 11.8978 11.2414 11.8978Z" fill="#717171"/>
</svg>
