<svg width="19" height="19" viewBox="0 0 19 19" fill="none" xmlns="http://www.w3.org/2000/svg">
<path fill-rule="evenodd" clip-rule="evenodd" d="M18.5 8.83293V17.5001C18.5 18.3285 17.8284 19.0001 17 19.0001H13.25C12.4216 19.0001 11.75 18.3285 11.75 17.5001V13.7501C11.75 13.3359 11.4142 13.0001 11 13.0001H8C7.58579 13.0001 7.25 13.3359 7.25 13.7501V17.5001C7.25 18.3285 6.57843 19.0001 5.75 19.0001H2C1.17157 19.0001 0.5 18.3285 0.5 17.5001V8.83293C0.499936 8.4132 0.67573 8.01265 0.984688 7.72855L8.48469 0.652302L8.495 0.641989C9.06719 0.121615 9.94124 0.121615 10.5134 0.641989C10.5166 0.645658 10.5201 0.649103 10.5238 0.652302L18.0238 7.72855C18.3296 8.01413 18.5022 8.41449 18.5 8.83293Z" fill="#171712"/>
</svg>
