<svg width="21" height="20" viewBox="0 0 21 20" fill="none" xmlns="http://www.w3.org/2000/svg">
<path fill-rule="evenodd" clip-rule="evenodd" d="M18.75 10.2025C18.7537 10.0675 18.7537 9.9325 18.75 9.7975L20.1488 8.05C20.2975 7.86393 20.349 7.61827 20.2875 7.38813C20.0578 6.52633 19.7148 5.6988 19.2675 4.92719C19.1486 4.72249 18.9401 4.58592 18.705 4.55875L16.4813 4.31125C16.3888 4.21375 16.295 4.12 16.2 4.03L15.9375 1.80063C15.9101 1.56531 15.7732 1.35677 15.5681 1.23813C14.7966 0.791171 13.969 0.448795 13.1072 0.22C12.877 0.158514 12.6314 0.210013 12.4453 0.35875L10.7025 1.75C10.5675 1.75 10.4325 1.75 10.2975 1.75L8.55 0.354063C8.36393 0.205326 8.11827 0.153827 7.88813 0.215312C7.02633 0.445025 6.1988 0.788016 5.42719 1.23531C5.22249 1.35417 5.08592 1.56268 5.05875 1.79781L4.81125 4.02531C4.71375 4.11844 4.62 4.21219 4.53 4.30656L2.30063 4.5625C2.06531 4.58988 1.85677 4.72682 1.73813 4.93188C1.29126 5.70359 0.948595 6.5311 0.719063 7.39281C0.657836 7.6231 0.709687 7.86878 0.85875 8.05469L2.25 9.7975C2.25 9.9325 2.25 10.0675 2.25 10.2025L0.854063 11.95C0.705326 12.1361 0.653827 12.3817 0.715312 12.6119C0.945025 13.4737 1.28802 14.3012 1.73531 15.0728C1.85417 15.2775 2.06268 15.4141 2.29781 15.4412L4.52156 15.6887C4.61469 15.7862 4.70844 15.88 4.80281 15.97L5.0625 18.1994C5.08988 18.4347 5.22682 18.6432 5.43188 18.7619C6.20359 19.2087 7.0311 19.5514 7.89281 19.7809C8.1231 19.8422 8.36878 19.7903 8.55469 19.6413L10.2975 18.25C10.4325 18.2537 10.5675 18.2537 10.7025 18.25L12.45 19.6488C12.6361 19.7975 12.8817 19.849 13.1119 19.7875C13.9738 19.5582 14.8014 19.2152 15.5728 18.7675C15.7775 18.6486 15.9141 18.4401 15.9412 18.205L16.1887 15.9813C16.2862 15.8888 16.38 15.795 16.47 15.7L18.6994 15.4375C18.9347 15.4101 19.1432 15.2732 19.2619 15.0681C19.7087 14.2964 20.0514 13.4689 20.2809 12.6072C20.3422 12.3769 20.2903 12.1312 20.1413 11.9453L18.75 10.2025ZM10.5 13.75C8.42893 13.75 6.75 12.0711 6.75 10C6.75 7.92893 8.42893 6.25 10.5 6.25C12.5711 6.25 14.25 7.92893 14.25 10C14.25 12.0711 12.5711 13.75 10.5 13.75Z" fill="#171712"/>
</svg>
