<svg width="21" height="20" viewBox="0 0 21 20" fill="none" xmlns="http://www.w3.org/2000/svg">
<path fill-rule="evenodd" clip-rule="evenodd" d="M10.5 5.5C8.01472 5.5 6 7.51472 6 10C6 12.4853 8.01472 14.5 10.5 14.5C12.9853 14.5 15 12.4853 15 10C14.9974 7.51579 12.9842 5.50258 10.5 5.5ZM10.5 13C8.84315 13 7.5 11.6569 7.5 10C7.5 8.34315 8.84315 7 10.5 7C12.1569 7 13.5 8.34315 13.5 10C13.5 11.6569 12.1569 13 10.5 13ZM18.75 10.2025C18.7537 10.0675 18.7537 9.9325 18.75 9.7975L20.1488 8.05C20.2975 7.86393 20.349 7.61827 20.2875 7.38813C20.0582 6.52619 19.7152 5.69861 19.2675 4.92719C19.1486 4.72249 18.9401 4.58592 18.705 4.55875L16.4813 4.31125C16.3888 4.21375 16.295 4.12 16.2 4.03L15.9375 1.80063C15.9101 1.56531 15.7732 1.35677 15.5681 1.23813C14.7964 0.791263 13.9689 0.448595 13.1072 0.219063C12.8769 0.157836 12.6312 0.209687 12.4453 0.35875L10.7025 1.75C10.5675 1.75 10.4325 1.75 10.2975 1.75L8.55 0.354063C8.36393 0.205326 8.11827 0.153827 7.88813 0.215312C7.02633 0.445025 6.1988 0.788016 5.42719 1.23531C5.22249 1.35417 5.08592 1.56268 5.05875 1.79781L4.81125 4.02531C4.71375 4.11844 4.62 4.21219 4.53 4.30656L2.30063 4.5625C2.06531 4.58988 1.85677 4.72682 1.73813 4.93188C1.29126 5.70359 0.948595 6.5311 0.719063 7.39281C0.657836 7.6231 0.709687 7.86878 0.85875 8.05469L2.25 9.7975C2.25 9.9325 2.25 10.0675 2.25 10.2025L0.854063 11.95C0.705326 12.1361 0.653827 12.3817 0.715312 12.6119C0.944615 13.4738 1.28763 14.3014 1.73531 15.0728C1.85417 15.2775 2.06268 15.4141 2.29781 15.4412L4.52156 15.6887C4.61469 15.7862 4.70844 15.88 4.80281 15.97L5.0625 18.1994C5.08988 18.4347 5.22682 18.6432 5.43188 18.7619C6.20359 19.2087 7.0311 19.5514 7.89281 19.7809C8.1231 19.8422 8.36878 19.7903 8.55469 19.6413L10.2975 18.25C10.4325 18.2537 10.5675 18.2537 10.7025 18.25L12.45 19.6488C12.6361 19.7975 12.8817 19.849 13.1119 19.7875C13.9738 19.5582 14.8014 19.2152 15.5728 18.7675C15.7775 18.6486 15.9141 18.4401 15.9412 18.205L16.1887 15.9813C16.2862 15.8888 16.38 15.795 16.47 15.7L18.6994 15.4375C18.9347 15.4101 19.1432 15.2732 19.2619 15.0681C19.7087 14.2964 20.0514 13.4689 20.2809 12.6072C20.3422 12.3769 20.2903 12.1312 20.1413 11.9453L18.75 10.2025ZM17.2406 9.59313C17.2566 9.86414 17.2566 10.1359 17.2406 10.4069C17.2295 10.5924 17.2876 10.7755 17.4037 10.9206L18.7341 12.5828C18.5814 13.0679 18.386 13.5385 18.15 13.9891L16.0312 14.2291C15.8467 14.2495 15.6764 14.3377 15.5531 14.4766C15.3727 14.6795 15.1805 14.8717 14.9775 15.0522C14.8387 15.1754 14.7505 15.3458 14.73 15.5303L14.4947 17.6472C14.0442 17.8833 13.5736 18.0787 13.0884 18.2313L11.4253 16.9009C11.2922 16.7946 11.1269 16.7367 10.9566 16.7369H10.9116C10.6405 16.7528 10.3688 16.7528 10.0978 16.7369C9.91226 16.7257 9.72918 16.7838 9.58406 16.9L7.91719 18.2313C7.43206 18.0786 6.96146 17.8831 6.51094 17.6472L6.27094 15.5312C6.25046 15.3467 6.16227 15.1764 6.02344 15.0531C5.82048 14.8727 5.62827 14.6805 5.44781 14.4775C5.32456 14.3387 5.1542 14.2505 4.96969 14.23L2.85281 13.9937C2.61674 13.5433 2.42128 13.0727 2.26875 12.5875L3.59906 10.9244C3.71522 10.7793 3.77336 10.5962 3.76219 10.4106C3.74625 10.1396 3.74625 9.86789 3.76219 9.59688C3.77336 9.41133 3.71522 9.22824 3.59906 9.08313L2.26875 7.41719C2.4214 6.93206 2.61685 6.46146 2.85281 6.01094L4.96875 5.77094C5.15326 5.75046 5.32362 5.66227 5.44688 5.52344C5.62733 5.32048 5.81954 5.12827 6.0225 4.94781C6.16188 4.82448 6.25043 4.65373 6.27094 4.46875L6.50625 2.35281C6.95672 2.11674 7.42733 1.92128 7.9125 1.76875L9.57563 3.09906C9.72074 3.21522 9.90383 3.27336 10.0894 3.26219C10.3604 3.24625 10.6321 3.24625 10.9031 3.26219C11.0887 3.27336 11.2718 3.21522 11.4169 3.09906L13.0828 1.76875C13.5679 1.9214 14.0385 2.11685 14.4891 2.35281L14.7291 4.46875C14.7495 4.65326 14.8377 4.82362 14.9766 4.94688C15.1795 5.12733 15.3717 5.31954 15.5522 5.5225C15.6754 5.66133 15.8458 5.74952 16.0303 5.77L18.1472 6.00531C18.3833 6.45578 18.5787 6.9264 18.7313 7.41156L17.4009 9.07469C17.2837 9.22103 17.2255 9.406 17.2378 9.59313H17.2406Z" fill="#8C8C5E"/>
</svg>
